<svg xmlns="http://www.w3.org/2000/svg" xmlns:xlink="http://www.w3.org/1999/xlink" width="1000" zoomAndPan="magnify" viewBox="0 0 750 749.999995" height="1000" preserveAspectRatio="xMidYMid meet" version="1.0"><defs><g/><clipPath id="0b2332a115"><path d="M 127 235 L 169 235 L 169 283 L 127 283 Z M 127 235 " clip-rule="nonzero"/></clipPath><clipPath id="4f54382695"><path d="M 127.679688 243.304688 L 158.769531 235.5 L 168.523438 274.363281 L 137.4375 282.167969 Z M 127.679688 243.304688 " clip-rule="nonzero"/></clipPath><clipPath id="3fd832666f"><path d="M 127.679688 243.304688 L 158.769531 235.5 L 168.496094 274.253906 L 137.410156 282.058594 Z M 127.679688 243.304688 " clip-rule="nonzero"/></clipPath><clipPath id="7da6a190e2"><path d="M 102 250 L 198 250 L 198 329 L 102 329 Z M 102 250 " clip-rule="nonzero"/></clipPath><clipPath id="6dc704dddb"><path d="M 102.53125 306.414062 L 181.585938 250.636719 L 197.039062 272.539062 L 117.984375 328.316406 Z M 102.53125 306.414062 " clip-rule="nonzero"/></clipPath><clipPath id="fe92b534de"><path d="M 102.53125 306.414062 L 181.570312 250.648438 L 197.023438 272.550781 L 117.984375 328.316406 Z M 102.53125 306.414062 " clip-rule="nonzero"/></clipPath><clipPath id="7c4ca56464"><path d="M 88 327 L 131 327 L 131 394 L 88 394 Z M 88 327 " clip-rule="nonzero"/></clipPath><clipPath id="ce6a984c5a"><path d="M 197.019531 259.972656 L 168.128906 406.398438 L 26.851562 378.523438 L 55.742188 232.097656 Z M 197.019531 259.972656 " clip-rule="nonzero"/></clipPath><clipPath id="c1271734fa"><path d="M 168.074219 406.675781 L 196.964844 260.246094 L 55.6875 232.375 L 26.796875 378.800781 Z M 168.074219 406.675781 " clip-rule="nonzero"/></clipPath><clipPath id="39b75b06ee"><path d="M 128 256 L 178 256 L 178 308 L 128 308 Z M 128 256 " clip-rule="nonzero"/></clipPath><clipPath id="d416450ed9"><path d="M 197.019531 259.972656 L 168.128906 406.398438 L 26.851562 378.523438 L 55.742188 232.097656 Z M 197.019531 259.972656 " clip-rule="nonzero"/></clipPath><clipPath id="a7bf3eaa2d"><path d="M 168.074219 406.675781 L 196.964844 260.246094 L 55.6875 232.375 L 26.796875 378.800781 Z M 168.074219 406.675781 " clip-rule="nonzero"/></clipPath><clipPath id="cf4575c2cd"><path d="M 36 276 L 194 276 L 194 353 L 36 353 Z M 36 276 " clip-rule="nonzero"/></clipPath><clipPath id="bd47f134b2"><path d="M 197.019531 259.972656 L 168.128906 406.398438 L 26.851562 378.523438 L 55.742188 232.097656 Z M 197.019531 259.972656 " clip-rule="nonzero"/></clipPath><clipPath id="edccdce7e0"><path d="M 168.074219 406.675781 L 196.964844 260.246094 L 55.6875 232.375 L 26.796875 378.800781 Z M 168.074219 406.675781 " clip-rule="nonzero"/></clipPath><clipPath id="e380ac042e"><path d="M 545.25 328.316406 L 552.234375 328.316406 L 552.234375 464.519531 L 545.25 464.519531 Z M 545.25 328.316406 " clip-rule="nonzero"/></clipPath><clipPath id="3ecc4d6b30"><path d="M 523.511719 292.214844 L 530.492188 292.214844 L 530.492188 464.519531 L 523.511719 464.519531 Z M 523.511719 292.214844 " clip-rule="nonzero"/></clipPath><clipPath id="80fe8f6862"><path d="M 555 359 L 618 359 L 618 417 L 555 417 Z M 555 359 " clip-rule="nonzero"/></clipPath><clipPath id="4e4d988166"><path d="M 598.207031 416.960938 L 555.75 387.765625 L 575.164062 359.535156 L 617.621094 388.730469 Z M 598.207031 416.960938 " clip-rule="nonzero"/></clipPath><clipPath id="edfde710bc"><path d="M 598.207031 416.960938 L 555.773438 387.78125 L 575.1875 359.550781 L 617.621094 388.730469 Z M 598.207031 416.960938 " clip-rule="nonzero"/></clipPath><clipPath id="98defc7a18"><path d="M 581 363 L 634 363 L 634 402 L 581 402 Z M 581 363 " clip-rule="nonzero"/></clipPath><clipPath id="c036235a9e"><path d="M 625.21875 363.183594 L 633.632812 385.050781 L 589.640625 401.96875 L 581.230469 380.101562 Z M 625.21875 363.183594 " clip-rule="nonzero"/></clipPath><clipPath id="6054bf4673"><path d="M 625.21875 363.183594 L 633.632812 385.050781 L 589.671875 401.957031 L 581.261719 380.089844 Z M 625.21875 363.183594 " clip-rule="nonzero"/></clipPath><clipPath id="bb9d046cd3"><path d="M 600 348 L 654 348 L 654 390 L 600 390 Z M 600 348 " clip-rule="nonzero"/></clipPath><clipPath id="11b065a84e"><path d="M 653.398438 368.402344 L 643.441406 389.609375 L 600.777344 369.574219 L 610.734375 348.367188 Z M 653.398438 368.402344 " clip-rule="nonzero"/></clipPath><clipPath id="ae1f78f4de"><path d="M 653.398438 368.402344 L 643.441406 389.609375 L 600.808594 369.589844 L 610.765625 348.382812 Z M 653.398438 368.402344 " clip-rule="nonzero"/></clipPath><clipPath id="422a0c69c1"><path d="M 577 372 L 608 372 L 608 407 L 577 407 Z M 577 372 " clip-rule="nonzero"/></clipPath><clipPath id="8939a62209"><path d="M 592.023438 406.671875 L 577.347656 381.585938 L 592.824219 372.53125 L 607.5 397.617188 Z M 592.023438 406.671875 " clip-rule="nonzero"/></clipPath><clipPath id="ee2266d80a"><path d="M 592.023438 406.671875 L 577.351562 381.59375 L 592.828125 372.539062 L 607.5 397.617188 Z M 592.023438 406.671875 " clip-rule="nonzero"/></clipPath><clipPath id="5c1cfcc1f5"><path d="M 620 437 L 665 437 L 665 503 L 620 503 Z M 620 437 " clip-rule="nonzero"/></clipPath><clipPath id="89fa80ddda"><path d="M 692.289062 339.730469 L 725.960938 485.128906 L 585.675781 517.617188 L 552.003906 372.214844 Z M 692.289062 339.730469 " clip-rule="nonzero"/></clipPath><clipPath id="d0c93c13d0"><path d="M 585.632812 517.914062 L 551.960938 372.515625 L 692.25 340.027344 L 725.921875 485.429688 Z M 585.632812 517.914062 " clip-rule="nonzero"/></clipPath><clipPath id="ce4809841c"><path d="M 570 368 L 622 368 L 622 418 L 570 418 Z M 570 368 " clip-rule="nonzero"/></clipPath><clipPath id="de8113fab5"><path d="M 692.289062 339.730469 L 725.960938 485.128906 L 585.675781 517.617188 L 552.003906 372.214844 Z M 692.289062 339.730469 " clip-rule="nonzero"/></clipPath><clipPath id="d196f1b163"><path d="M 585.632812 517.914062 L 551.960938 372.515625 L 692.25 340.027344 L 725.921875 485.429688 Z M 585.632812 517.914062 " clip-rule="nonzero"/></clipPath><clipPath id="7a637577e8"><path d="M 556 388 L 716 388 L 716 461 L 556 461 Z M 556 388 " clip-rule="nonzero"/></clipPath><clipPath id="e7a70a9607"><path d="M 692.289062 339.730469 L 725.960938 485.128906 L 585.675781 517.617188 L 552.003906 372.214844 Z M 692.289062 339.730469 " clip-rule="nonzero"/></clipPath><clipPath id="783ca6c9ab"><path d="M 585.632812 517.914062 L 551.960938 372.515625 L 692.25 340.027344 L 725.921875 485.429688 Z M 585.632812 517.914062 " clip-rule="nonzero"/></clipPath></defs><rect x="-75" width="900" fill="#ffffff" y="-74.999999" height="899.999994" fill-opacity="1"/><rect x="-75" width="900" fill="#dfceaa" y="-74.999999" height="899.999994" fill-opacity="1"/><g fill="#974600" fill-opacity="1"><g transform="translate(134.446, 372.182259)"><g><path d="M 59.4375 -81.46875 C 66.726562 -81.46875 73.351562 -79.789062 79.3125 -76.4375 C 85.28125 -73.082031 90.015625 -68.273438 93.515625 -62.015625 C 97.015625 -55.753906 98.765625 -48.488281 98.765625 -40.21875 C 98.765625 -31.9375 97.015625 -24.640625 93.515625 -18.328125 C 90.015625 -12.023438 85.28125 -7.171875 79.3125 -3.765625 C 73.351562 -0.367188 66.726562 1.328125 59.4375 1.328125 C 48.882812 1.328125 41 -1.773438 35.78125 -7.984375 L 35.78125 0 L 9.015625 0 L 9.015625 -109.703125 L 37.109375 -109.703125 L 37.109375 -73.1875 C 42.523438 -78.707031 49.96875 -81.46875 59.4375 -81.46875 Z M 53.515625 -21 C 58.441406 -21 62.484375 -22.695312 65.640625 -26.09375 C 68.796875 -29.488281 70.375 -34.195312 70.375 -40.21875 C 70.375 -46.125 68.796875 -50.753906 65.640625 -54.109375 C 62.484375 -57.460938 58.441406 -59.140625 53.515625 -59.140625 C 48.585938 -59.140625 44.546875 -57.460938 41.390625 -54.109375 C 38.242188 -50.753906 36.671875 -46.125 36.671875 -40.21875 C 36.671875 -34.195312 38.242188 -29.488281 41.390625 -26.09375 C 44.546875 -22.695312 48.585938 -21 53.515625 -21 Z M 53.515625 -21 "/></g></g></g><g fill="#974600" fill-opacity="1"><g transform="translate(221.528449, 372.182259)"><g><path d="M 43.171875 -81.46875 C 56.472656 -81.46875 66.625 -78.4375 73.625 -72.375 C 80.625 -66.3125 84.125 -57.019531 84.125 -44.5 L 84.125 0 L 57.953125 0 L 57.953125 -10.34375 C 53.910156 -2.5625 46.023438 1.328125 34.296875 1.328125 C 28.085938 1.328125 22.71875 0.242188 18.1875 -1.921875 C 13.65625 -4.085938 10.226562 -7.019531 7.90625 -10.71875 C 5.59375 -14.414062 4.4375 -18.628906 4.4375 -23.359375 C 4.4375 -30.953125 7.34375 -36.84375 13.15625 -41.03125 C 18.96875 -45.21875 27.9375 -47.3125 40.0625 -47.3125 L 56.03125 -47.3125 C 55.539062 -55.789062 49.875 -60.03125 39.03125 -60.03125 C 35.1875 -60.03125 31.289062 -59.410156 27.34375 -58.171875 C 23.40625 -56.941406 20.054688 -55.242188 17.296875 -53.078125 L 7.828125 -72.140625 C 12.265625 -75.097656 17.660156 -77.390625 24.015625 -79.015625 C 30.378906 -80.648438 36.765625 -81.46875 43.171875 -81.46875 Z M 42.140625 -16.40625 C 45.390625 -16.40625 48.242188 -17.191406 50.703125 -18.765625 C 53.171875 -20.347656 54.945312 -22.664062 56.03125 -25.71875 L 56.03125 -32.671875 L 43.90625 -32.671875 C 35.726562 -32.671875 31.640625 -29.960938 31.640625 -24.546875 C 31.640625 -22.078125 32.570312 -20.101562 34.4375 -18.625 C 36.3125 -17.144531 38.878906 -16.40625 42.140625 -16.40625 Z M 42.140625 -16.40625 "/></g></g></g><g fill="#974600" fill-opacity="1"><g transform="translate(298.705115, 372.182259)"><g><path d="M 35.78125 -70.515625 C 38.632812 -74.160156 42.351562 -76.894531 46.9375 -78.71875 C 51.519531 -80.550781 56.769531 -81.46875 62.6875 -81.46875 L 62.6875 -56.1875 C 60.125 -56.476562 58.003906 -56.625 56.328125 -56.625 C 50.316406 -56.625 45.609375 -54.992188 42.203125 -51.734375 C 38.804688 -48.484375 37.109375 -43.507812 37.109375 -36.8125 L 37.109375 0 L 9.015625 0 L 9.015625 -80.125 L 35.78125 -80.125 Z M 35.78125 -70.515625 "/></g></g></g><g fill="#974600" fill-opacity="1"><g transform="translate(348.529876, 372.182259)"><g><path d="M 59.4375 -81.46875 C 66.726562 -81.46875 73.351562 -79.789062 79.3125 -76.4375 C 85.28125 -73.082031 90.015625 -68.273438 93.515625 -62.015625 C 97.015625 -55.753906 98.765625 -48.488281 98.765625 -40.21875 C 98.765625 -31.9375 97.015625 -24.640625 93.515625 -18.328125 C 90.015625 -12.023438 85.28125 -7.171875 79.3125 -3.765625 C 73.351562 -0.367188 66.726562 1.328125 59.4375 1.328125 C 48.882812 1.328125 41 -1.773438 35.78125 -7.984375 L 35.78125 0 L 9.015625 0 L 9.015625 -109.703125 L 37.109375 -109.703125 L 37.109375 -73.1875 C 42.523438 -78.707031 49.96875 -81.46875 59.4375 -81.46875 Z M 53.515625 -21 C 58.441406 -21 62.484375 -22.695312 65.640625 -26.09375 C 68.796875 -29.488281 70.375 -34.195312 70.375 -40.21875 C 70.375 -46.125 68.796875 -50.753906 65.640625 -54.109375 C 62.484375 -57.460938 58.441406 -59.140625 53.515625 -59.140625 C 48.585938 -59.140625 44.546875 -57.460938 41.390625 -54.109375 C 38.242188 -50.753906 36.671875 -46.125 36.671875 -40.21875 C 36.671875 -34.195312 38.242188 -29.488281 41.390625 -26.09375 C 44.546875 -22.695312 48.585938 -21 53.515625 -21 Z M 53.515625 -21 "/></g></g></g><g fill="#974600" fill-opacity="1"><g transform="translate(435.612325, 372.182259)"><g><path d="M 90.921875 -39.921875 C 90.921875 -39.722656 90.773438 -37.40625 90.484375 -32.96875 L 32.234375 -32.96875 C 33.410156 -28.832031 35.695312 -25.65625 39.09375 -23.4375 C 42.5 -21.21875 46.765625 -20.109375 51.890625 -20.109375 C 55.734375 -20.109375 59.0625 -20.648438 61.875 -21.734375 C 64.6875 -22.816406 67.519531 -24.59375 70.375 -27.0625 L 85.15625 -11.671875 C 77.375 -3.003906 65.988281 1.328125 51 1.328125 C 41.644531 1.328125 33.414062 -0.441406 26.3125 -3.984375 C 19.21875 -7.535156 13.722656 -12.460938 9.828125 -18.765625 C 5.929688 -25.078125 3.984375 -32.226562 3.984375 -40.21875 C 3.984375 -48.101562 5.878906 -55.171875 9.671875 -61.421875 C 13.472656 -67.679688 18.722656 -72.585938 25.421875 -76.140625 C 32.128906 -79.691406 39.671875 -81.46875 48.046875 -81.46875 C 56.035156 -81.46875 63.28125 -79.816406 69.78125 -76.515625 C 76.289062 -73.210938 81.441406 -68.429688 85.234375 -62.171875 C 89.023438 -55.910156 90.921875 -48.492188 90.921875 -39.921875 Z M 48.203125 -61.5 C 43.859375 -61.5 40.234375 -60.265625 37.328125 -57.796875 C 34.421875 -55.335938 32.570312 -51.988281 31.78125 -47.75 L 64.609375 -47.75 C 63.816406 -51.988281 61.96875 -55.335938 59.0625 -57.796875 C 56.15625 -60.265625 52.535156 -61.5 48.203125 -61.5 Z M 48.203125 -61.5 "/></g></g></g><g fill="#974600" fill-opacity="1"><g transform="translate(514.858864, 372.182259)"><g><path d="M 35.78125 -70.515625 C 38.632812 -74.160156 42.351562 -76.894531 46.9375 -78.71875 C 51.519531 -80.550781 56.769531 -81.46875 62.6875 -81.46875 L 62.6875 -56.1875 C 60.125 -56.476562 58.003906 -56.625 56.328125 -56.625 C 50.316406 -56.625 45.609375 -54.992188 42.203125 -51.734375 C 38.804688 -48.484375 37.109375 -43.507812 37.109375 -36.8125 L 37.109375 0 L 9.015625 0 L 9.015625 -80.125 L 35.78125 -80.125 Z M 35.78125 -70.515625 "/></g></g></g><g clip-path="url(#0b2332a115)"><g clip-path="url(#4f54382695)"><g clip-path="url(#3fd832666f)"><path fill="#974600" d="M 127.679688 243.304688 L 158.769531 235.5 L 168.496094 274.242188 L 137.40625 282.046875 Z M 127.679688 243.304688 " fill-opacity="1" fill-rule="nonzero"/></g></g></g><g clip-path="url(#7da6a190e2)"><g clip-path="url(#6dc704dddb)"><g clip-path="url(#fe92b534de)"><path fill="#dfceaa" d="M 102.53125 306.414062 L 181.585938 250.636719 L 197.039062 272.539062 L 117.984375 328.316406 Z M 102.53125 306.414062 " fill-opacity="1" fill-rule="nonzero"/></g></g></g><g clip-path="url(#7c4ca56464)"><g clip-path="url(#ce6a984c5a)"><g clip-path="url(#c1271734fa)"><path fill="#974600" d="M 96.710938 361.386719 C 103.609375 356.804688 112.515625 354.652344 116.8125 347.019531 C 120.003906 341.402344 120.992188 333.824219 121.152344 327.609375 C 122.1875 327.761719 123.117188 327.945312 123.851562 328.089844 C 126.050781 328.523438 128.363281 328.117188 130.347656 327.085938 C 123.332031 335.605469 124.5625 342.25 125.632812 345.050781 C 125.929688 345.871094 125.695312 346.789062 124.984375 347.308594 C 118.996094 351.664062 117.132812 361.101562 118.804688 368.335938 C 121.460938 379.832031 113.863281 395.957031 99.988281 392.660156 C 88.585938 389.953125 85.566406 375.390625 91.425781 366.542969 C 91.0625 365.300781 90.527344 362.859375 91.636719 361.351562 C 93.089844 359.148438 96.710938 361.386719 96.710938 361.386719 Z M 95.570312 374.367188 C 94.152344 380.539062 97.039062 386.492188 102.046875 387.632812 C 107.050781 388.773438 112.230469 384.664062 113.652344 378.492188 C 115.070312 372.324219 112.183594 366.371094 107.175781 365.230469 C 102.171875 364.089844 96.992188 368.199219 95.570312 374.367188 Z M 95.570312 374.367188 " fill-opacity="1" fill-rule="nonzero"/></g></g></g><g clip-path="url(#39b75b06ee)"><g clip-path="url(#d416450ed9)"><g clip-path="url(#a7bf3eaa2d)"><path fill="#974600" d="M 128.742188 307.417969 L 176.796875 256.664062 C 177.3125 256.105469 178.144531 256.777344 177.765625 257.414062 C 172.722656 265.207031 163.011719 280.203125 153.566406 294.339844 C 144.472656 298.996094 135.640625 303.601562 128.742188 307.417969 Z M 128.742188 307.417969 " fill-opacity="1" fill-rule="nonzero"/></g></g></g><g clip-path="url(#cf4575c2cd)"><g clip-path="url(#bd47f134b2)"><g clip-path="url(#edccdce7e0)"><path fill="#974600" d="M 49.007812 337.246094 C 48.640625 324.171875 64.753906 318.96875 75.472656 322.8125 C 82.445312 325.304688 92.050781 324.507812 97.03125 319.09375 C 97.617188 318.445312 98.601562 318.335938 99.347656 318.683594 C 102.066406 320.085938 108.914062 322.199219 118.617188 315.480469 C 129.144531 308.210938 175.757812 285.105469 192.300781 276.941406 C 192.972656 276.617188 193.550781 277.542969 192.957031 277.984375 L 130.554688 324.742188 C 128.710938 326.105469 126.417969 326.667969 124.167969 326.222656 C 118.144531 325.085938 105.367188 323.429688 96.347656 327.183594 C 87.269531 330.980469 84.414062 341.335938 77.675781 347.675781 C 69.820312 355.066406 55.125 352.828125 50.441406 343.371094 C 43.582031 343.386719 35.320312 335.054688 36.15625 332.628906 C 36.902344 330.640625 43.058594 338.054688 49.007812 337.246094 Z M 126.808594 319.53125 C 127.71875 320.320312 129.058594 320.230469 129.796875 319.308594 C 130.585938 318.398438 130.496094 317.058594 129.574219 316.320312 C 128.65625 315.578125 127.324219 315.621094 126.585938 316.542969 C 125.855469 317.414062 125.9375 318.800781 126.808594 319.53125 Z M 54.292969 337.222656 C 54.863281 342.3125 60.40625 345.894531 66.734375 345.214844 C 73.019531 344.523438 77.707031 339.808594 77.136719 334.71875 C 76.566406 329.628906 71.023438 326.046875 64.695312 326.730469 C 58.414062 327.421875 53.722656 332.132812 54.292969 337.222656 Z M 54.292969 337.222656 " fill-opacity="1" fill-rule="nonzero"/></g></g></g><g clip-path="url(#e380ac042e)"><path fill="#974600" d="M 545.25 328.316406 L 552.234375 328.316406 L 552.234375 464.53125 L 545.25 464.53125 Z M 545.25 328.316406 " fill-opacity="1" fill-rule="nonzero"/></g><g fill="#974600" fill-opacity="1"><g transform="translate(269.702851, 464.547827)"><g><path d="M 57.734375 -79.125 C 64.816406 -79.125 71.253906 -77.492188 77.046875 -74.234375 C 82.835938 -70.984375 87.429688 -66.316406 90.828125 -60.234375 C 94.234375 -54.160156 95.9375 -47.101562 95.9375 -39.0625 C 95.9375 -31.019531 94.234375 -23.929688 90.828125 -17.796875 C 87.429688 -11.671875 82.835938 -6.957031 77.046875 -3.65625 C 71.253906 -0.351562 64.816406 1.296875 57.734375 1.296875 C 47.484375 1.296875 39.820312 -1.71875 34.75 -7.75 L 34.75 0 L 8.765625 0 L 8.765625 -106.5625 L 36.046875 -106.5625 L 36.046875 -71.09375 C 41.304688 -76.445312 48.535156 -79.125 57.734375 -79.125 Z M 51.984375 -20.390625 C 56.773438 -20.390625 60.703125 -22.039062 63.765625 -25.34375 C 66.828125 -28.644531 68.359375 -33.21875 68.359375 -39.0625 C 68.359375 -44.800781 66.828125 -49.296875 63.765625 -52.546875 C 60.703125 -55.804688 56.773438 -57.4375 51.984375 -57.4375 C 47.203125 -57.4375 43.273438 -55.804688 40.203125 -52.546875 C 37.140625 -49.296875 35.609375 -44.800781 35.609375 -39.0625 C 35.609375 -33.21875 37.140625 -28.644531 40.203125 -25.34375 C 43.273438 -22.039062 47.203125 -20.390625 51.984375 -20.390625 Z M 51.984375 -20.390625 "/></g></g></g><g fill="#974600" fill-opacity="1"><g transform="translate(354.28997, 464.547827)"><g><path d="M 47.828125 1.296875 C 39.492188 1.296875 31.972656 -0.425781 25.265625 -3.875 C 18.566406 -7.320312 13.328125 -12.109375 9.546875 -18.234375 C 5.765625 -24.359375 3.875 -31.300781 3.875 -39.0625 C 3.875 -46.71875 5.765625 -53.609375 9.546875 -59.734375 C 13.328125 -65.867188 18.546875 -70.632812 25.203125 -74.03125 C 31.859375 -77.425781 39.398438 -79.125 47.828125 -79.125 C 56.242188 -79.125 63.800781 -77.425781 70.5 -74.03125 C 77.207031 -70.632812 82.425781 -65.894531 86.15625 -59.8125 C 89.894531 -53.726562 91.765625 -46.8125 91.765625 -39.0625 C 91.765625 -31.300781 89.894531 -24.359375 86.15625 -18.234375 C 82.425781 -12.109375 77.207031 -7.320312 70.5 -3.875 C 63.800781 -0.425781 56.242188 1.296875 47.828125 1.296875 Z M 47.828125 -20.390625 C 52.609375 -20.390625 56.53125 -22.039062 59.59375 -25.34375 C 62.65625 -28.644531 64.1875 -33.21875 64.1875 -39.0625 C 64.1875 -44.800781 62.65625 -49.296875 59.59375 -52.546875 C 56.53125 -55.804688 52.609375 -57.4375 47.828125 -57.4375 C 43.035156 -57.4375 39.109375 -55.804688 36.046875 -52.546875 C 32.984375 -49.296875 31.453125 -44.800781 31.453125 -39.0625 C 31.453125 -33.21875 32.984375 -28.644531 36.046875 -25.34375 C 39.109375 -22.039062 43.035156 -20.390625 47.828125 -20.390625 Z M 47.828125 -20.390625 "/></g></g></g><g fill="#974600" fill-opacity="1"><g transform="translate(434.712366, 464.547827)"><g><path d="M 47.828125 1.296875 C 39.492188 1.296875 31.972656 -0.425781 25.265625 -3.875 C 18.566406 -7.320312 13.328125 -12.109375 9.546875 -18.234375 C 5.765625 -24.359375 3.875 -31.300781 3.875 -39.0625 C 3.875 -46.71875 5.765625 -53.609375 9.546875 -59.734375 C 13.328125 -65.867188 18.546875 -70.632812 25.203125 -74.03125 C 31.859375 -77.425781 39.398438 -79.125 47.828125 -79.125 C 56.242188 -79.125 63.800781 -77.425781 70.5 -74.03125 C 77.207031 -70.632812 82.425781 -65.894531 86.15625 -59.8125 C 89.894531 -53.726562 91.765625 -46.8125 91.765625 -39.0625 C 91.765625 -31.300781 89.894531 -24.359375 86.15625 -18.234375 C 82.425781 -12.109375 77.207031 -7.320312 70.5 -3.875 C 63.800781 -0.425781 56.242188 1.296875 47.828125 1.296875 Z M 47.828125 -20.390625 C 52.609375 -20.390625 56.53125 -22.039062 59.59375 -25.34375 C 62.65625 -28.644531 64.1875 -33.21875 64.1875 -39.0625 C 64.1875 -44.800781 62.65625 -49.296875 59.59375 -52.546875 C 56.53125 -55.804688 52.609375 -57.4375 47.828125 -57.4375 C 43.035156 -57.4375 39.109375 -55.804688 36.046875 -52.546875 C 32.984375 -49.296875 31.453125 -44.800781 31.453125 -39.0625 C 31.453125 -33.21875 32.984375 -28.644531 36.046875 -25.34375 C 39.109375 -22.039062 43.035156 -20.390625 47.828125 -20.390625 Z M 47.828125 -20.390625 "/></g></g></g><g fill="#974600" fill-opacity="1"><g transform="translate(515.134753, 464.547827)"><g><path d="M 44.09375 -27.28125 L 36.046875 -19.09375 L 36.046875 0 L 8.765625 0 L 8.765625 -106.5625 L 36.046875 -106.5625 L 36.046875 -50.6875 L 63.90625 -77.84375 L 96.21875 -77.84375 L 63.90625 -44.515625 L 98.953125 0 L 65.921875 0 Z M 44.09375 -27.28125 "/></g></g></g><g clip-path="url(#3ecc4d6b30)"><path fill="#974600" d="M 523.511719 292.214844 L 530.492188 292.214844 L 530.492188 464.503906 L 523.511719 464.503906 Z M 523.511719 292.214844 " fill-opacity="1" fill-rule="nonzero"/></g><g clip-path="url(#80fe8f6862)"><g clip-path="url(#4e4d988166)"><g clip-path="url(#edfde710bc)"><path fill="#dfceaa" d="M 598.207031 416.960938 L 555.75 387.765625 L 575.164062 359.535156 L 617.621094 388.730469 Z M 598.207031 416.960938 " fill-opacity="1" fill-rule="nonzero"/></g></g></g><g clip-path="url(#98defc7a18)"><g clip-path="url(#c036235a9e)"><g clip-path="url(#6054bf4673)"><path fill="#974600" d="M 625.21875 363.183594 L 633.632812 385.050781 L 589.640625 401.96875 L 581.230469 380.101562 Z M 625.21875 363.183594 " fill-opacity="1" fill-rule="nonzero"/></g></g></g><g clip-path="url(#bb9d046cd3)"><g clip-path="url(#11b065a84e)"><g clip-path="url(#ae1f78f4de)"><path fill="#dfceaa" d="M 653.398438 368.402344 L 643.441406 389.609375 L 600.777344 369.574219 L 610.734375 348.367188 Z M 653.398438 368.402344 " fill-opacity="1" fill-rule="nonzero"/></g></g></g><g clip-path="url(#422a0c69c1)"><g clip-path="url(#8939a62209)"><g clip-path="url(#ee2266d80a)"><path fill="#dfceaa" d="M 592.023438 406.671875 L 577.347656 381.585938 L 592.824219 372.53125 L 607.5 397.617188 Z M 592.023438 406.671875 " fill-opacity="1" fill-rule="nonzero"/></g></g></g><g clip-path="url(#5c1cfcc1f5)"><g clip-path="url(#89fa80ddda)"><g clip-path="url(#d0c93c13d0)"><path fill="#974600" d="M 655.476562 470.316406 C 648.433594 465.960938 639.460938 464.101562 634.914062 456.613281 C 631.539062 451.101562 630.304688 443.5625 629.941406 437.355469 C 628.910156 437.542969 627.988281 437.757812 627.261719 437.925781 C 625.074219 438.429688 622.75 438.101562 620.734375 437.136719 C 628.023438 445.421875 627.011719 452.097656 626.035156 454.933594 C 625.765625 455.765625 626.027344 456.675781 626.753906 457.171875 C 632.882812 461.328125 635.054688 470.695312 633.621094 477.984375 C 631.339844 489.558594 639.464844 505.425781 653.226562 501.679688 C 664.53125 498.597656 667.070312 483.945312 660.925781 475.292969 C 661.25 474.042969 661.703125 471.582031 660.542969 470.113281 C 659.023438 467.960938 655.476562 470.316406 655.476562 470.316406 Z M 657.039062 483.25 C 658.660156 489.371094 655.96875 495.417969 651.003906 496.71875 C 646.035156 498.023438 640.726562 494.085938 639.105469 487.96875 C 637.484375 481.847656 640.175781 475.800781 645.140625 474.5 C 650.105469 473.195312 655.417969 477.132812 657.039062 483.25 Z M 657.039062 483.25 " fill-opacity="1" fill-rule="nonzero"/></g></g></g><g clip-path="url(#ce4809841c)"><g clip-path="url(#de8113fab5)"><g clip-path="url(#d196f1b163)"><path fill="#974600" d="M 621.695312 417.425781 L 572.003906 368.273438 C 571.46875 367.730469 570.65625 368.429688 571.058594 369.054688 C 576.351562 376.675781 586.550781 391.347656 596.453125 405.164062 C 605.695312 409.519531 614.675781 413.835938 621.695312 417.425781 Z M 621.695312 417.425781 " fill-opacity="1" fill-rule="nonzero"/></g></g></g><g clip-path="url(#7a637577e8)"><g clip-path="url(#e7a70a9607)"><g clip-path="url(#783ca6c9ab)"><path fill="#974600" d="M 702.363281 444.625 C 702.300781 431.546875 686.027344 426.875 675.4375 431.066406 C 668.550781 433.785156 658.925781 433.304688 653.769531 428.054688 C 653.164062 427.425781 652.175781 427.347656 651.441406 427.722656 C 648.769531 429.210938 641.996094 431.546875 632.074219 425.148438 C 621.316406 418.230469 573.972656 396.664062 557.171875 389.046875 C 556.488281 388.742188 555.941406 389.6875 556.550781 390.109375 L 620.449219 434.796875 C 622.335938 436.097656 624.648438 436.585938 626.882812 436.070312 C 632.863281 434.734375 645.578125 432.660156 654.71875 436.121094 C 663.914062 439.617188 667.109375 449.871094 674.050781 455.988281 C 682.144531 463.117188 696.757812 460.398438 701.128906 450.792969 C 707.988281 450.585938 715.96875 441.984375 715.054688 439.585938 C 714.246094 437.628906 708.335938 445.234375 702.363281 444.625 Z M 624.023438 429.46875 C 623.136719 430.289062 621.796875 430.238281 621.027344 429.34375 C 620.210938 428.460938 620.257812 427.117188 621.152344 426.347656 C 622.046875 425.578125 623.378906 425.578125 624.148438 426.472656 C 624.90625 427.320312 624.871094 428.710938 624.023438 429.46875 Z M 697.078125 444.773438 C 696.675781 449.878906 691.253906 453.640625 684.902344 453.167969 C 678.601562 452.683594 673.761719 448.128906 674.167969 443.019531 C 674.570312 437.914062 679.988281 434.152344 686.339844 434.628906 C 692.640625 435.113281 697.480469 439.667969 697.078125 444.773438 Z M 697.078125 444.773438 " fill-opacity="1" fill-rule="nonzero"/></g></g></g></svg>